<svg xmlns="http://www.w3.org/2000/svg" viewBox="0 0 750 500"><defs><style>.cls-1{isolation:isolate;}.cls-2{fill:#cdfafc;}.cls-3{fill:#ebfffe;}.cls-4{fill:#d9ffff;}.cls-5,.cls-6{fill:#13a4c1;}.cls-5{opacity:0.4;}.cls-7{fill:#2b7a78;}.cls-8{fill:#009e79;}.cls-9{fill:#008467;}.cls-10{fill:#e6e7e8;mix-blend-mode:multiply;}.cls-11,.cls-14{fill:#00d8b1;}.cls-12{fill:#f98700;}.cls-13{fill:#e76100;}.cls-14{opacity:0.2;}</style></defs><title>map bg</title><g class="cls-1"><g id="BACKGROUND"><rect class="cls-2" width="750" height="500"/><path class="cls-3" d="M750,204.32V429.7L0,418.5v-174a46.55,46.55,0,0,1,19-8.73c34.13-6.8,47.52,38.31,47.52,38.31s8-48.84,46.26-65,75,20.07,75,20.07-5.7-79.46,68-105.16c72.72-25.34,116.82,62.59,118,65-.28-1.18-5.6-24,17.17-40.06,23.38-16.48,51.84-1.8,53.21,12.91,0,0,18.89-62.07,97.65-60.09s83.56,142.33,83.56,142.33,11-38.66,42.58-40.12,44.28,34.71,44.28,34.71S719.56,212.33,750,204.32Z"/><polygon class="cls-4" points="216.09 84.6 750 66.6 750 101.08 216.09 84.6"/><polygon class="cls-4" points="750 55 0 66.6 0 33.64 750 42 750 55"/></g><g id="OBJECTS"><path class="cls-5" d="M750,414.85V311.5c-3.65-9.74-10.21-18.49-21.63-23-34.89-13.8-47.15,32.41-47.15,32.41s-8.55-20.86-31.3-17.58-19.56,42.18-19.56,42.18-9-17.27-28.29-15.84-19.31,33.84-19.31,33.84-29.07-18.87-46.14,6.18C515.53,400.67,718,415.31,750,414.85Z"/><path class="cls-5" d="M0,418.1V285.94C5.54,271.16,15.5,257.87,32.85,251c53-21,71.61,49.23,71.61,49.23s13-31.68,47.54-26.71,29.71,64.07,29.71,64.07,13.68-26.23,43-24.06S254,364.94,254,364.94s44.15-28.66,70.08,9.39C356.11,421.37,48.58,418.8,0,418.1Z"/><path class="cls-6" d="M630.34,379.87S630.43,357,617,352.59s-22.09,4-22.09,4-.61-26.2-20.63-27.39c-26.3,1.27-21.17,34.05-21.17,34.05s-2.8-10.7-15.49-12.67-17.82,11-16.42,15.13c0,0-15.52-9.79-33.1,15.33h0l140.55,10.49Z"/><path class="cls-6" d="M.08,378.29S-2.29,351,18.46,342.17,49,353.66,49,353.66s-4.8-45.81,26.8-50.35c41.91-1.48,44.68,50.35,44.68,50.35s.22-20.06,20.11-24.87,28.26,22.81,26.58,29.56c0,0,23.33-17.59,54.56,19.94h0L.08,413.58Z"/><path class="cls-7" d="M750,407.55V500H0V401.67c87.52-18.39,217.33-30.05,362.21-30.05C522,371.62,663.38,385.79,750,407.55Z"/><circle class="cls-8" cx="627.13" cy="314.7" r="11.07" transform="translate(201.14 872.25) rotate(-79.27)"/><path class="cls-9" d="M634.22,315.9a1,1,0,1,1-1.16-.92A1,1,0,0,1,634.22,315.9Z"/><circle class="cls-9" cx="628.24" cy="320.59" r="1.56"/><path class="cls-9" d="M632.5,310.09a1.59,1.59,0,1,1-1.76-1.39A1.58,1.58,0,0,1,632.5,310.09Z"/><path class="cls-9" d="M629,314.53a.92.92,0,0,1-.8,1,.92.92,0,1,1,.8-1Z"/><path class="cls-9" d="M623.73,316.55a2.1,2.1,0,0,1-4.17.48,2.12,2.12,0,0,1,1.85-2.33A2.09,2.09,0,0,1,623.73,316.55Z"/><path class="cls-9" d="M624.92,309.71a1.25,1.25,0,0,1-2.49.29,1.26,1.26,0,0,1,1.1-1.39A1.25,1.25,0,0,1,624.92,309.71Z"/><path class="cls-8" d="M623.26,327.77l2-4.68-.88-.26-.89-.26-.9,5s-2.54,1.76-.32,2.41S623.26,327.77,623.26,327.77Z"/><path class="cls-8" d="M630.14,301.83l-2,4.68.89.26.88.26.91-5s2.53-1.75.32-2.41S630.14,301.83,630.14,301.83Z"/><path class="cls-8" d="M641.72,318.69l-6.62-2.77-.37,1.25-.37,1.25,7.06,1.28s2.49,3.59,3.42.45S641.72,318.69,641.72,318.69Z"/><path class="cls-8" d="M613.73,311.36l4.68,2,.26-.89.26-.88-5-.91s-1.76-2.54-2.41-.32S613.73,311.36,613.73,311.36Z"/><path class="cls-8" d="M633.36,325.73l-1.93-4.7-.81.45-.81.44,2.89,4.16s-.55,3,1.48,1.93S633.36,325.73,633.36,325.73Z"/><path class="cls-8" d="M618.93,301.59l2.65,6.46,1.11-.6,1.12-.61-4-5.75s.76-4.18-2-2.66S618.93,301.59,618.93,301.59Z"/><path class="cls-8" d="M638.3,308.06,633.61,310l.44.81.44.81,4.17-2.89s3,.55,1.93-1.48S638.3,308.06,638.3,308.06Z"/><path class="cls-8" d="M615.57,321.34l4.69-1.92-.44-.81-.44-.81-4.17,2.88s-3-.55-1.93,1.49S615.57,321.34,615.57,321.34Z"/><path class="cls-8" d="M638.8,323.85l-4.07-4-.64.81-.65.82,4.83,3s.77,3.39,2.39,1.35S638.8,323.85,638.8,323.85Z"/><path class="cls-8" d="M614.88,305.94l3.82,3.77.61-.76.61-.77-4.55-2.86s-.72-3.19-2.25-1.27S614.88,305.94,614.88,305.94Z"/><path class="cls-8" d="M636.43,301.7l-4.87,4.93,1,.78,1,.78,3.69-5.85s4.11-.94,1.63-2.9S636.43,301.7,636.43,301.7Z"/><path class="cls-8" d="M618.26,326.21l4-4.06-.81-.65-.82-.64-3,4.82s-3.39.77-1.35,2.39S618.26,326.21,618.26,326.21Z"/><path class="cls-8" d="M641.75,312.55l-6.22,0,.13,1.12.13,1.13,6.07-1.38s3.2,2,2.87-.8S641.75,312.55,641.75,312.55Z"/><path class="cls-8" d="M611.31,317l6.22,0-.13-1.12-.13-1.12-6.06,1.37s-3.21-2-2.88.8S611.31,317,611.31,317Z"/><path class="cls-8" d="M624.53,299.45l0,5.26,1-.11,1-.11-1.17-5.13s1.71-2.71-.68-2.43S624.53,299.45,624.53,299.45Z"/><path class="cls-8" d="M629.05,331.08l0-6.21-1.13.13-1.12.13,1.37,6.06s-2,3.2.8,2.87S629.05,331.08,629.05,331.08Z"/><path class="cls-10" d="M637.23,319.25a11.07,11.07,0,1,1-16.61-13.5,10.87,10.87,0,0,0-.91,5.82,11.07,11.07,0,0,0,17.52,7.68Z"/><path class="cls-8" d="M616.1,172.88a9.25,9.25,0,1,1-10.25-8.12A9.25,9.25,0,0,1,616.1,172.88Z"/><path class="cls-9" d="M612.84,175a.88.88,0,1,1-1-.77A.88.88,0,0,1,612.84,175Z"/><path class="cls-9" d="M609.14,178.72a1.31,1.31,0,1,1-1.45-1.15A1.31,1.31,0,0,1,609.14,178.72Z"/><path class="cls-9" d="M611.4,170.09a1.32,1.32,0,0,1-2.63.31,1.32,1.32,0,0,1,1.16-1.47A1.34,1.34,0,0,1,611.4,170.09Z"/><path class="cls-9" d="M608.46,173.81a.76.76,0,1,1-.84-.67A.76.76,0,0,1,608.46,173.81Z"/><path class="cls-9" d="M604.07,175.49a1.75,1.75,0,1,1-1.94-1.54A1.75,1.75,0,0,1,604.07,175.49Z"/><path class="cls-9" d="M605.06,169.77a1,1,0,1,1-1.15-.91A1,1,0,0,1,605.06,169.77Z"/><path class="cls-8" d="M603.67,184.87l1.64-3.91-.74-.22-.74-.22-.76,4.17s-2.12,1.47-.26,2S603.67,184.87,603.67,184.87Z"/><path class="cls-8" d="M609.43,163.19l-1.64,3.91.74.22.74.22.76-4.17s2.12-1.47.26-2S609.43,163.19,609.43,163.19Z"/><path class="cls-8" d="M619.1,177.28,613.57,175l-.31,1-.31,1.05,5.9,1.07s2.08,3,2.86.37S619.1,177.28,619.1,177.28Z"/><path class="cls-8" d="M595.71,171.15l3.91,1.64.22-.74.22-.74-4.17-.76s-1.47-2.12-2-.26S595.71,171.15,595.71,171.15Z"/><path class="cls-8" d="M612.11,183.16l-1.6-3.92-.68.37-.68.37,2.41,3.48s-.46,2.54,1.24,1.61S612.11,183.16,612.11,183.16Z"/><path class="cls-8" d="M600.05,163l2.22,5.4.93-.51.94-.5-3.33-4.8s.64-3.5-1.7-2.23S600.05,163,600.05,163Z"/><path class="cls-8" d="M616.25,168.4,612.33,170l.37.67.37.68,3.48-2.41s2.53.46,1.61-1.24S616.25,168.4,616.25,168.4Z"/><path class="cls-8" d="M597.25,179.5l3.92-1.61-.37-.68-.37-.68L597,179s-2.54-.46-1.61,1.23S597.25,179.5,597.25,179.5Z"/><path class="cls-8" d="M616.66,181.59l-3.4-3.35-.53.68-.54.68,4,2.54s.64,2.83,2,1.13S616.66,181.59,616.66,181.59Z"/><path class="cls-8" d="M596.67,166.63l3.2,3.15.5-.64.51-.64-3.8-2.4s-.6-2.66-1.87-1S596.67,166.63,596.67,166.63Z"/><path class="cls-8" d="M614.68,163.08l-4.06,4.12.82.65.83.66,3.08-4.89s3.43-.78,1.36-2.42S614.68,163.08,614.68,163.08Z"/><path class="cls-8" d="M599.5,183.56l3.35-3.39-.68-.54-.68-.54-2.54,4s-2.83.65-1.13,2S599.5,183.56,599.5,183.56Z"/><path class="cls-8" d="M619.13,172.15l-5.2,0,.11.94.11.94,5.07-1.15s2.67,1.69,2.4-.67S619.13,172.15,619.13,172.15Z"/><path class="cls-8" d="M593.69,175.91l5.2,0-.11-.94-.11-.94-5.07,1.15s-2.67-1.68-2.4.67S593.69,175.91,593.69,175.91Z"/><path class="cls-8" d="M604.74,161.2l0,4.4.79-.09.8-.09-1-4.29s1.43-2.27-.56-2S604.74,161.2,604.74,161.2Z"/><path class="cls-8" d="M608.51,187.64l0-5.2-.94.11-.94.11,1.15,5.07s-1.69,2.67.67,2.4S608.51,187.64,608.51,187.64Z"/><path class="cls-10" d="M615.35,177.75a9.25,9.25,0,1,1-13.88-11.28,9.15,9.15,0,0,0-.76,4.86,9.26,9.26,0,0,0,14.64,6.42Z"/><circle class="cls-11" cx="707.34" cy="129.13" r="19.26" transform="translate(494.71 816.01) rotate(-83.15)"/><path class="cls-8" d="M719.68,131.21a1.82,1.82,0,1,1-2-1.6A1.83,1.83,0,0,1,719.68,131.21Z"/><path class="cls-8" d="M712,139.06a2.72,2.72,0,1,1-3-2.39A2.72,2.72,0,0,1,712,139.06Z"/><path class="cls-8" d="M716.67,121.11a2.75,2.75,0,1,1-3-2.42A2.75,2.75,0,0,1,716.67,121.11Z"/><path class="cls-8" d="M710.57,128.84a1.59,1.59,0,1,1-1.76-1.39A1.59,1.59,0,0,1,710.57,128.84Z"/><path class="cls-8" d="M701.44,132.34a3.65,3.65,0,1,1-4.05-3.21A3.65,3.65,0,0,1,701.44,132.34Z"/><circle class="cls-8" cx="701.34" cy="120.69" r="2.18" transform="translate(-2.34 226.9) rotate(-18.35)"/><path class="cls-11" d="M700.61,151.86l3.4-8.14-1.54-.45-1.54-.46-1.57,8.68s-4.41,3-.55,4.19S700.61,151.86,700.61,151.86Z"/><path class="cls-11" d="M712.58,106.75l-3.41,8.13,1.54.45,1.54.46,1.58-8.68s4.41-3,.55-4.19S712.58,106.75,712.58,106.75Z"/><path class="cls-11" d="M732.72,136.06l-11.52-4.82-.64,2.18-.64,2.18,12.27,2.23s4.33,6.24,5.94.78S732.72,136.06,732.72,136.06Z"/><path class="cls-11" d="M684,123.32l8.13,3.4.45-1.54.46-1.54-8.67-1.57s-3.06-4.41-4.2-.56S684,123.32,684,123.32Z"/><path class="cls-11" d="M718.17,148.3l-3.34-8.16-1.41.77-1.41.77,5,7.24s-1,5.28,2.57,3.36S718.17,148.3,718.17,148.3Z"/><path class="cls-11" d="M693.07,106.32l4.62,11.25,1.94-1.06,1.94-1.06-6.92-10s1.32-7.28-3.55-4.63S693.07,106.32,693.07,106.32Z"/><path class="cls-11" d="M726.77,117.58l-8.15,3.35.76,1.41.77,1.41,7.25-5s5.28,1,3.35-2.58S726.77,117.58,726.77,117.58Z"/><path class="cls-11" d="M687.23,140.68l8.16-3.35-.77-1.41-.76-1.41-7.25,5s-5.28-.95-3.36,2.58S687.23,140.68,687.23,140.68Z"/><path class="cls-11" d="M727.63,145l-7.06-7-1.13,1.42-1.12,1.42,8.4,5.29s1.34,5.89,4.15,2.34S727.63,145,727.63,145Z"/><path class="cls-11" d="M686,113.89l6.65,6.57,1.06-1.34,1.06-1.33-7.91-5s-1.26-5.55-3.91-2.21S686,113.89,686,113.89Z"/><path class="cls-11" d="M723.51,106.52l-8.46,8.57,1.72,1.36,1.72,1.36,6.41-10.18s7.15-1.62,2.84-5S723.51,106.52,723.51,106.52Z"/><path class="cls-11" d="M691.92,149.14l7-7.06L697.48,141l-1.42-1.12-5.29,8.4s-5.89,1.34-2.34,4.15S691.92,149.14,691.92,149.14Z"/><path class="cls-11" d="M732.77,125.38l-10.81.07.22,2,.23,2L733,127s5.57,3.51,5-1.39S732.77,125.38,732.77,125.38Z"/><path class="cls-11" d="M679.83,133.2l10.81-.07-.22-1.95-.23-2-10.54,2.39s-5.57-3.51-5,1.39S679.83,133.2,679.83,133.2Z"/><path class="cls-11" d="M702.82,102.61l.06,9.15,1.65-.19,1.66-.2-2-8.92s3-4.71-1.18-4.23S702.82,102.61,702.82,102.61Z"/><path class="cls-11" d="M710.68,157.62l-.07-10.81-2,.23-1.95.22,2.39,10.54s-3.51,5.57,1.39,5S710.68,157.62,710.68,157.62Z"/><path class="cls-10" d="M724.9,137A19.26,19.26,0,1,1,696,113.56,19.26,19.26,0,0,0,724.9,137Z"/><circle class="cls-11" cx="611.12" cy="87.63" r="11.44" transform="translate(8.93 223.71) rotate(-20.89)"/><path class="cls-8" d="M618.45,88.86a1.08,1.08,0,1,1-1.2-.94A1.08,1.08,0,0,1,618.45,88.86Z"/><path class="cls-8" d="M613.88,93.53a1.62,1.62,0,1,1-1.8-1.42A1.62,1.62,0,0,1,613.88,93.53Z"/><path class="cls-8" d="M616.67,82.86a1.64,1.64,0,1,1-1.82-1.44A1.63,1.63,0,0,1,616.67,82.86Z"/><path class="cls-8" d="M613,87.46a.94.94,0,1,1-1-.83A.94.94,0,0,1,613,87.46Z"/><circle class="cls-8" cx="605.46" cy="89.78" r="2.17" transform="translate(293.35 616.31) rotate(-67.78)"/><path class="cls-8" d="M608.84,82.47a1.29,1.29,0,1,1-1.44-1.14A1.29,1.29,0,0,1,608.84,82.47Z"/><path class="cls-11" d="M607.12,101.13l2-4.83-.91-.27-.92-.27-.93,5.15s-2.62,1.82-.33,2.49S607.12,101.13,607.12,101.13Z"/><path class="cls-11" d="M614.23,74.33l-2,4.83.91.27.92.27.93-5.15s2.62-1.82.33-2.49S614.23,74.33,614.23,74.33Z"/><path class="cls-11" d="M626.2,91.74l-6.84-2.86-.39,1.3-.38,1.29,7.3,1.33s2.57,3.71,3.52.46S626.2,91.74,626.2,91.74Z"/><path class="cls-11" d="M597.27,84.17l4.84,2,.27-.92.27-.91-5.16-.94s-1.81-2.62-2.49-.33S597.27,84.17,597.27,84.17Z"/><path class="cls-11" d="M617.56,99l-2-4.85-.84.46-.84.45,3,4.31s-.57,3.13,1.53,2S617.56,99,617.56,99Z"/><path class="cls-11" d="M602.64,74.08l2.74,6.68,1.16-.63,1.15-.63-4.11-5.93s.78-4.33-2.11-2.75S602.64,74.08,602.64,74.08Z"/><path class="cls-11" d="M622.67,80.77l-4.85,2,.45.83.46.84,4.31-3s3.13.57,2-1.53S622.67,80.77,622.67,80.77Z"/><path class="cls-11" d="M599.17,94.49l4.85-2-.46-.84-.45-.83-4.31,3s-3.13-.57-2,1.53S599.17,94.49,599.17,94.49Z"/><path class="cls-11" d="M623.17,97.08,619,92.94l-.67.84-.67.84,5,3.14s.8,3.5,2.47,1.39S623.17,97.08,623.17,97.08Z"/><path class="cls-11" d="M598.46,78.57l3.95,3.91.63-.8.63-.79-4.7-3s-.75-3.29-2.32-1.31S598.46,78.57,598.46,78.57Z"/><path class="cls-11" d="M620.73,74.2l-5,5.09,1,.8,1,.81,3.81-6.05s4.25-1,1.69-3S620.73,74.2,620.73,74.2Z"/><path class="cls-11" d="M602,99.52l4.14-4.2-.84-.67-.84-.66-3.15,5s-3.5.8-1.39,2.47S602,99.52,602,99.52Z"/><path class="cls-11" d="M626.23,85.4l-6.43,0,.14,1.16.13,1.17,6.27-1.42s3.3,2.08,3-.83S626.23,85.4,626.23,85.4Z"/><path class="cls-11" d="M594.78,90.05l6.42,0-.14-1.16-.13-1.17-6.26,1.43s-3.31-2.09-3,.82S594.78,90.05,594.78,90.05Z"/><path class="cls-11" d="M608.43,71.87l0,5.44,1-.12,1-.11-1.2-5.3s1.77-2.8-.7-2.52S608.43,71.87,608.43,71.87Z"/><path class="cls-11" d="M613.1,104.56l0-6.43-1.16.14-1.16.13,1.42,6.26s-2.09,3.31.83,3S613.1,104.56,613.1,104.56Z"/><path class="cls-10" d="M621.55,92.33a11.44,11.44,0,1,1-17.16-14,11.43,11.43,0,0,0,11.75,16.06A11.24,11.24,0,0,0,621.55,92.33Z"/><circle class="cls-11" cx="705.67" cy="352.21" r="21.28"/><path class="cls-8" d="M719,356.06a2,2,0,1,1-2-2A2,2,0,0,1,719,356.06Z"/><path class="cls-8" d="M709.5,363.69a3,3,0,1,1-3-3A3,3,0,0,1,709.5,363.69Z"/><path class="cls-8" d="M716.94,344.59a3,3,0,1,1-3-3A3,3,0,0,1,716.94,344.59Z"/><circle class="cls-8" cx="707.5" cy="352.3" r="1.75"/><circle class="cls-8" cx="694.75" cy="354.97" r="4.03"/><path class="cls-8" d="M702.56,342.18a2.41,2.41,0,1,1-2.4-2.4A2.4,2.4,0,0,1,702.56,342.18Z"/><path class="cls-11" d="M695.39,376.29l4.77-8.49-1.63-.7-1.64-.69-2.83,9.32s-5.23,2.79-1.14,4.53S695.39,376.29,695.39,376.29Z"/><path class="cls-11" d="M714.27,328.31l-4.77,8.49,1.63.69,1.63.7,2.83-9.32s5.23-2.79,1.14-4.53S714.27,328.31,714.27,328.31Z"/><path class="cls-11" d="M732.64,363l-12-6.75-1,2.31-1,2.31,13.19,4s4,7.4,6.42,1.61S732.64,363,732.64,363Z"/><path class="cls-11" d="M680.83,342.86l8.5,4.77L690,346l.7-1.63-9.32-2.84s-2.8-5.22-4.54-1.14S680.83,342.86,680.83,342.86Z"/><path class="cls-11" d="M715.12,374.63l-2.63-9.38-1.65.66-1.64.66,4.58,8.59s-1.72,5.68,2.4,4S715.12,374.63,715.12,374.63Z"/><path class="cls-11" d="M692.92,325.36l3.63,12.93,2.26-.91,2.27-.92-6.32-11.84s2.37-7.82-3.31-5.53S692.92,325.36,692.92,325.36Z"/><path class="cls-11" d="M728.47,342l-9.38,2.63.66,1.65.67,1.64,8.59-4.59s5.67,1.73,4-2.4S728.47,342,728.47,342Z"/><path class="cls-11" d="M682.13,362.32l9.38-2.63-.66-1.65-.66-1.64-8.6,4.59s-5.67-1.73-4,2.4S682.13,362.32,682.13,362.32Z"/><path class="cls-11" d="M725.91,372.25l-6.86-8.56-1.41,1.42-1.41,1.41,8.54,6.87s.72,6.64,4.25,3.1S725.91,372.25,725.91,372.25Z"/><path class="cls-11" d="M684.23,332.77l6.46,8.05,1.33-1.33,1.33-1.33-8.05-6.47s-.67-6.25-4-2.92S684.23,332.77,684.23,332.77Z"/><path class="cls-11" d="M726.3,329.45l-10.38,8.33,1.71,1.71,1.72,1.71,8.34-10.36s8-.87,3.75-5.16S726.3,329.45,726.3,329.45Z"/><path class="cls-11" d="M686.2,372.21l8.55-6.87-1.41-1.41-1.41-1.41-6.88,8.54s-6.63.72-3.1,4.25S686.2,372.21,686.2,372.21Z"/><path class="cls-11" d="M734.05,351.33,722.18,350v4.35l11.87-1.28s5.67,4.55,5.67-.89S734.05,351.33,734.05,351.33Z"/><path class="cls-11" d="M675,353.18l11.87,1.3v-4.35L675,351.41s-5.66-4.56-5.66.89S675,353.18,675,353.18Z"/><path class="cls-11" d="M704.09,322.52,703,332.57h3.69l-1.09-10.05s3.86-4.79-.75-4.79S704.09,322.52,704.09,322.52Z"/><path class="cls-11" d="M705.7,383.9,707,372h-4.35l1.28,11.87s-4.56,5.66.89,5.66S705.7,383.9,705.7,383.9Z"/><path class="cls-10" d="M723.94,363.13a21.28,21.28,0,1,1-28.72-29.46,21.28,21.28,0,0,0,28.72,29.46Z"/><circle class="cls-12" cx="680.34" cy="234.08" r="22.24" transform="translate(-38.02 274.18) rotate(-22.18)"/><path class="cls-13" d="M694.2,238.1a2.1,2.1,0,1,1-2.09-2.1A2.1,2.1,0,0,1,694.2,238.1Z"/><path class="cls-13" d="M684.33,246.08a3.14,3.14,0,1,1-3.14-3.14A3.14,3.14,0,0,1,684.33,246.08Z"/><path class="cls-13" d="M692.11,226.11a3.18,3.18,0,1,1-3.18-3.17A3.18,3.18,0,0,1,692.11,226.11Z"/><circle class="cls-13" cx="682.25" cy="234.17" r="1.83"/><path class="cls-13" d="M673.14,237a4.22,4.22,0,1,1-4.22-4.21A4.22,4.22,0,0,1,673.14,237Z"/><path class="cls-13" d="M677.09,223.6a2.52,2.52,0,1,1-2.52-2.51A2.51,2.51,0,0,1,677.09,223.6Z"/><path class="cls-12" d="M669.59,259.24l5-8.87-1.7-.73-1.71-.73-2.95,9.74s-5.47,2.92-1.2,4.74S669.59,259.24,669.59,259.24Z"/><path class="cls-12" d="M689.32,209.1l-5,8.88,1.71.72,1.7.73,3-9.74s5.46-2.92,1.19-4.74S689.32,209.1,689.32,209.1Z"/><path class="cls-12" d="M708.51,245.4,696,238.34l-1,2.41-1,2.42,13.79,4.19s4.13,7.73,6.71,1.68S708.51,245.4,708.51,245.4Z"/><path class="cls-12" d="M654.38,224.31l8.88,5,.72-1.7.73-1.71-9.74-3s-2.92-5.46-4.74-1.19S654.38,224.31,654.38,224.31Z"/><path class="cls-12" d="M690.21,257.5l-2.76-9.8-1.71.69-1.72.69,4.79,9s-1.8,5.93,2.51,4.19S690.21,257.5,690.21,257.5Z"/><path class="cls-12" d="M667,206l3.79,13.51,2.37-.95,2.37-1-6.61-12.37s2.48-8.17-3.46-5.78S667,206,667,206Z"/><path class="cls-12" d="M704.15,223.42l-9.8,2.75.7,1.72.69,1.72,9-4.8s5.92,1.8,4.19-2.5S704.15,223.42,704.15,223.42Z"/><path class="cls-12" d="M655.74,244.64l9.8-2.75-.69-1.72-.7-1.72-9,4.8s-5.93-1.8-4.2,2.5S655.74,244.64,655.74,244.64Z"/><path class="cls-12" d="M701.48,255l-7.17-8.93-1.47,1.47L691.36,249l8.93,7.18s.75,6.93,4.44,3.24S701.48,255,701.48,255Z"/><path class="cls-12" d="M657.93,213.76l6.75,8.42,1.39-1.39,1.39-1.39-8.41-6.76s-.7-6.53-4.18-3S657.93,213.76,657.93,213.76Z"/><path class="cls-12" d="M701.88,210.3,691,219l1.79,1.79,1.79,1.78,8.72-10.82s8.4-.91,3.92-5.39S701.88,210.3,701.88,210.3Z"/><path class="cls-12" d="M660,255l8.93-7.17-1.47-1.48L666,244.85l-7.18,8.92s-6.93.75-3.24,4.45S660,255,660,255Z"/><path class="cls-12" d="M710,233.16l-12.41-1.36v4.54L710,235s5.92,4.77,5.92-.93S710,233.16,710,233.16Z"/><path class="cls-12" d="M648.25,235.09l12.4,1.36V231.9l-12.4,1.34s-5.92-4.76-5.92.93S648.25,235.09,648.25,235.09Z"/><path class="cls-12" d="M678.68,203.06l-1.15,10.5h3.84l-1.13-10.5s4-5-.79-5S678.68,203.06,678.68,203.06Z"/><path class="cls-12" d="M680.37,267.19l1.36-12.41h-4.55l1.34,12.41s-4.76,5.92.94,5.92S680.37,267.19,680.37,267.19Z"/><path class="cls-10" d="M699.42,245.48a22.23,22.23,0,1,1-30-30.77,22.22,22.22,0,0,0,30,30.77Z"/><circle class="cls-12" cx="676.62" cy="51.38" r="10.27" transform="translate(521.7 712.02) rotate(-81.15)"/><circle class="cls-13" cx="682.05" cy="53.24" r="0.97"/><path class="cls-13" d="M678.46,56.92A1.45,1.45,0,1,1,677,55.47,1.44,1.44,0,0,1,678.46,56.92Z"/><path class="cls-13" d="M682.05,47.7a1.47,1.47,0,1,1-1.46-1.47A1.46,1.46,0,0,1,682.05,47.7Z"/><path class="cls-13" d="M678.34,51.42a.84.84,0,0,1-.84.85.85.85,0,0,1-.85-.85.84.84,0,0,1,.85-.84A.83.83,0,0,1,678.34,51.42Z"/><path class="cls-13" d="M673.29,52.71a1.95,1.95,0,1,1-1.95-1.94A1.95,1.95,0,0,1,673.29,52.71Z"/><path class="cls-13" d="M675.11,46.54A1.16,1.16,0,1,1,674,45.38,1.16,1.16,0,0,1,675.11,46.54Z"/><path class="cls-12" d="M671.65,63l2.3-4.1-.78-.34-.79-.34L671,62.73s-2.52,1.35-.55,2.19S671.65,63,671.65,63Z"/><path class="cls-12" d="M680.77,39.84l-2.31,4.1.79.33.79.34,1.37-4.5s2.52-1.35.55-2.19S680.77,39.84,680.77,39.84Z"/><path class="cls-12" d="M689.64,56.61l-5.81-3.26-.47,1.11-.48,1.12,6.37,1.93s1.91,3.58,3.1.78S689.64,56.61,689.64,56.61Z"/><path class="cls-12" d="M664.62,46.86l4.11,2.31.33-.79.34-.79-4.5-1.37s-1.35-2.52-2.19-.55S664.62,46.86,664.62,46.86Z"/><path class="cls-12" d="M681.18,62.2l-1.27-4.53-.8.32-.79.32,2.21,4.15s-.83,2.74,1.16,1.94S681.18,62.2,681.18,62.2Z"/><path class="cls-12" d="M670.46,38.42l1.75,6.24,1.09-.44,1.1-.44-3-5.72s1.14-3.78-1.6-2.67S670.46,38.42,670.46,38.42Z"/><path class="cls-12" d="M687.62,46.45l-4.53,1.27.32.8.32.79,4.15-2.21s2.74.83,1.94-1.16S687.62,46.45,687.62,46.45Z"/><path class="cls-12" d="M665.25,56.26,669.78,55l-.32-.8-.32-.79L665,55.62s-2.74-.84-1.94,1.15S665.25,56.26,665.25,56.26Z"/><path class="cls-12" d="M686.39,61.05l-3.32-4.13-.68.68-.68.69,4.12,3.32s.35,3.2,2.06,1.49S686.39,61.05,686.39,61.05Z"/><path class="cls-12" d="M666.26,42l3.12,3.89.64-.64.65-.64-3.89-3.13s-.32-3-1.93-1.41S666.26,42,666.26,42Z"/><path class="cls-12" d="M686.57,40.39l-5,4,.83.83.83.82,4-5s3.89-.42,1.82-2.49S686.57,40.39,686.57,40.39Z"/><path class="cls-12" d="M667.21,61l4.13-3.31-.68-.68-.68-.68-3.32,4.12s-3.2.35-1.5,2.05S667.21,61,667.21,61Z"/><path class="cls-12" d="M690.32,51l-5.73-.62v2.1l5.73-.62s2.73,2.2,2.73-.43S690.32,51,690.32,51Z"/><path class="cls-12" d="M661.79,51.85l5.73.62v-2.1l-5.73.62s-2.74-2.2-2.74.43S661.79,51.85,661.79,51.85Z"/><path class="cls-12" d="M675.85,37l-.53,4.86h1.78L676.57,37s1.86-2.31-.36-2.31S675.85,37,675.85,37Z"/><path class="cls-12" d="M676.63,66.68l.63-5.73h-2.1l.62,5.73s-2.2,2.73.43,2.73S676.63,66.68,676.63,66.68Z"/><path class="cls-10" d="M685.43,56.65a10.27,10.27,0,1,1-13.86-14.22,10.15,10.15,0,0,0-1.46,5.27A10.28,10.28,0,0,0,680.39,58,10.11,10.11,0,0,0,685.43,56.65Z"/><circle class="cls-12" cx="694.49" cy="439.57" r="9"/><path class="cls-13" d="M700.1,441.2a.85.85,0,1,1-.85-.85A.85.85,0,0,1,700.1,441.2Z"/><circle class="cls-13" cx="694.83" cy="444.43" r="1.27"/><path class="cls-13" d="M699.25,436.35a1.29,1.29,0,1,1-1.28-1.29A1.28,1.28,0,0,1,699.25,436.35Z"/><path class="cls-13" d="M696,439.61a.74.74,0,1,1-.74-.74A.74.74,0,0,1,696,439.61Z"/><circle class="cls-13" cx="689.87" cy="440.74" r="1.71"/><circle class="cls-13" cx="692.15" cy="435.33" r="1.02"/><path class="cls-12" d="M690.14,449.76l2-3.59-.69-.3-.69-.29-1.19,3.94s-2.22,1.18-.49,1.92S690.14,449.76,690.14,449.76Z"/><path class="cls-12" d="M698.12,429.46l-2,3.59.69.3.69.29,1.19-3.94s2.22-1.18.49-1.92S698.12,429.46,698.12,429.46Z"/><path class="cls-12" d="M705.9,444.16l-5.09-2.86-.42,1-.41,1,5.58,1.7s1.67,3.13,2.71.68S705.9,444.16,705.9,444.16Z"/><path class="cls-12" d="M684,435.62l3.59,2,.3-.7.29-.69-3.94-1.19s-1.18-2.22-1.92-.49S684,435.62,684,435.62Z"/><path class="cls-12" d="M698.48,449.06l-1.11-4-.7.28-.69.28,1.94,3.63s-.73,2.4,1,1.7S698.48,449.06,698.48,449.06Z"/><path class="cls-12" d="M689.09,428.21l1.54,5.47,1-.38,1-.39-2.68-5s1-3.31-1.4-2.34S689.09,428.21,689.09,428.21Z"/><path class="cls-12" d="M704.13,435.26l-4,1.11.28.7.28.69,3.64-1.94s2.4.73,1.7-1S704.13,435.26,704.13,435.26Z"/><path class="cls-12" d="M684.53,443.85l4-1.11-.28-.7-.28-.7-3.64,2s-2.4-.73-1.7,1S684.53,443.85,684.53,443.85Z"/><path class="cls-12" d="M703.05,448.05l-2.9-3.62-.6.6-.6.6,3.62,2.9s.3,2.81,1.8,1.32S703.05,448.05,703.05,448.05Z"/><path class="cls-12" d="M685.41,431.35l2.74,3.41.56-.57.56-.56-3.4-2.74s-.29-2.64-1.69-1.23S685.41,431.35,685.41,431.35Z"/><path class="cls-12" d="M703.21,429.94l-4.39,3.53.73.72.72.73,3.53-4.39s3.4-.37,1.59-2.18S703.21,429.94,703.21,429.94Z"/><path class="cls-12" d="M686.25,448l3.62-2.9-.6-.6-.6-.6-2.91,3.62s-2.8.3-1.31,1.8S686.25,448,686.25,448Z"/><path class="cls-12" d="M706.49,439.2l-5-.55v1.84l5-.54s2.4,1.93,2.4-.38S706.49,439.2,706.49,439.2Z"/><path class="cls-12" d="M681.49,440l5,.55v-1.84l-5,.54s-2.39-1.92-2.39.38S681.49,440,681.49,440Z"/><path class="cls-12" d="M693.82,427l-.47,4.25h1.56l-.46-4.25s1.63-2-.32-2S693.82,427,693.82,427Z"/><path class="cls-12" d="M694.5,453l.55-5h-1.84l.54,5s-1.92,2.4.38,2.4S694.5,453,694.5,453Z"/><path class="cls-10" d="M702.21,444.19a9,9,0,1,1-12.14-12.46,8.86,8.86,0,0,0-1.28,4.62,9,9,0,0,0,9,9A8.91,8.91,0,0,0,702.21,444.19Z"/><circle class="cls-12" cx="530.27" cy="141.4" r="9"/><circle class="cls-13" cx="535.04" cy="143.03" r="0.85"/><circle class="cls-13" cx="530.62" cy="146.26" r="1.27"/><path class="cls-13" d="M535,138.17a1.29,1.29,0,1,1-1.29-1.28A1.29,1.29,0,0,1,535,138.17Z"/><path class="cls-13" d="M531.79,141.44a.74.74,0,0,1-.74.74.75.75,0,0,1-.75-.74.76.76,0,0,1,.75-.75A.75.75,0,0,1,531.79,141.44Z"/><path class="cls-13" d="M527.36,142.57a1.71,1.71,0,1,1-1.71-1.71A1.71,1.71,0,0,1,527.36,142.57Z"/><path class="cls-13" d="M529,137.16a1,1,0,1,1-1-1A1,1,0,0,1,529,137.16Z"/><path class="cls-12" d="M525.92,151.59l2-3.6-.69-.29-.69-.29-1.2,3.94s-2.21,1.18-.48,1.92S525.92,151.59,525.92,151.59Z"/><path class="cls-12" d="M533.91,131.29l-2,3.59.69.29.69.3,1.2-3.95s2.21-1.18.48-1.91S533.91,131.29,533.91,131.29Z"/><path class="cls-12" d="M541.68,146l-5.09-2.86-.41,1-.42,1,5.58,1.69s1.68,3.14,2.72.69S541.68,146,541.68,146Z"/><path class="cls-12" d="M519.76,137.44l3.6,2,.29-.69.3-.69-4-1.2s-1.18-2.21-1.92-.48S519.76,137.44,519.76,137.44Z"/><path class="cls-12" d="M534.27,150.88l-1.12-4-.69.28-.7.28,1.94,3.64s-.73,2.4,1,1.7S534.27,150.88,534.27,150.88Z"/><path class="cls-12" d="M524.88,130l1.53,5.47,1-.39,1-.38-2.68-5s1-3.31-1.4-2.34S524.88,130,524.88,130Z"/><path class="cls-12" d="M539.92,137.08l-4,1.12.28.69.28.7,3.63-1.94s2.4.73,1.7-1S539.92,137.08,539.92,137.08Z"/><path class="cls-12" d="M520.31,145.68l4-1.12-.28-.69-.28-.7-3.64,1.94s-2.39-.73-1.69,1S520.31,145.68,520.31,145.68Z"/><path class="cls-12" d="M538.84,149.88l-2.91-3.62-.6.59-.59.6,3.61,2.91s.3,2.81,1.8,1.31S538.84,149.88,538.84,149.88Z"/><path class="cls-12" d="M521.2,133.17l2.73,3.41.57-.56.56-.56-3.4-2.74s-.29-2.65-1.7-1.24S521.2,133.17,521.2,133.17Z"/><path class="cls-12" d="M539,131.77l-4.39,3.52.72.73.73.72,3.52-4.38s3.41-.37,1.59-2.19S539,131.77,539,131.77Z"/><path class="cls-12" d="M522,149.86l3.62-2.91-.6-.59-.59-.6-2.91,3.61s-2.81.31-1.31,1.8S522,149.86,522,149.86Z"/><path class="cls-12" d="M542.28,141l-5-.55v1.84l5-.55s2.4,1.93,2.4-.37S542.28,141,542.28,141Z"/><path class="cls-12" d="M517.28,141.81l5,.55v-1.84l-5,.54s-2.4-1.93-2.4.38S517.28,141.81,517.28,141.81Z"/><path class="cls-12" d="M529.6,128.84l-.47,4.25h1.56l-.46-4.25s1.64-2-.32-2S529.6,128.84,529.6,128.84Z"/><path class="cls-12" d="M530.29,154.81l.55-5H529l.54,5s-1.93,2.39.38,2.39S530.29,154.81,530.29,154.81Z"/><path class="cls-10" d="M538,146a9,9,0,1,1-12.15-12.46A9,9,0,0,0,538,146Z"/><circle class="cls-12" cx="553.53" cy="387.93" r="15.63" transform="translate(82.32 872.54) rotate(-80.83)"/><path class="cls-13" d="M563.28,390.76a1.48,1.48,0,1,1-1.48-1.47A1.48,1.48,0,0,1,563.28,390.76Z"/><circle class="cls-13" cx="554.13" cy="396.37" r="2.21"/><path class="cls-13" d="M561.8,382.33a2.23,2.23,0,1,1-2.23-2.23A2.23,2.23,0,0,1,561.8,382.33Z"/><path class="cls-13" d="M556.16,388a1.29,1.29,0,1,1-1.29-1.29A1.29,1.29,0,0,1,556.16,388Z"/><circle class="cls-13" cx="545.5" cy="389.96" r="2.96"/><path class="cls-13" d="M551.24,380.57a1.77,1.77,0,1,1-1.76-1.77A1.76,1.76,0,0,1,551.24,380.57Z"/><path class="cls-12" d="M546,405.63l3.51-6.24-1.2-.51-1.2-.51L545,405.21s-3.84,2.06-.84,3.33S546,405.63,546,405.63Z"/><path class="cls-12" d="M559.84,370.37l-3.5,6.24,1.2.51,1.2.51,2.08-6.84s3.84-2.06.83-3.34S559.84,370.37,559.84,370.37Z"/><path class="cls-12" d="M573.34,395.89l-8.83-5-.73,1.7-.72,1.7,9.69,2.94s2.91,5.44,4.72,1.19S573.34,395.89,573.34,395.89Z"/><path class="cls-12" d="M535.28,381.06l6.24,3.51.51-1.2.51-1.2-6.85-2.08s-2.05-3.84-3.33-.84S535.28,381.06,535.28,381.06Z"/><path class="cls-12" d="M560.47,404.4l-1.94-6.89-1.21.49-1.2.49,3.37,6.31s-1.27,4.17,1.76,2.95S560.47,404.4,560.47,404.4Z"/><path class="cls-12" d="M544.16,368.21l2.66,9.5,1.67-.68,1.66-.67-4.64-8.7s1.74-5.74-2.43-4.06S544.16,368.21,544.16,368.21Z"/><path class="cls-12" d="M570.28,380.44l-6.89,1.93.48,1.21.49,1.21,6.31-3.37s4.17,1.26,3-1.76S570.28,380.44,570.28,380.44Z"/><path class="cls-12" d="M536.23,395.36l6.89-1.93-.48-1.21-.49-1.21-6.31,3.37s-4.17-1.26-3,1.76S536.23,395.36,536.23,395.36Z"/><path class="cls-12" d="M568.4,402.65l-5-6.28-1,1-1,1,6.28,5.05s.52,4.87,3.12,2.27S568.4,402.65,568.4,402.65Z"/><path class="cls-12" d="M537.77,373.65l4.75,5.92,1-1,1-1-5.91-4.75s-.49-4.59-2.94-2.15S537.77,373.65,537.77,373.65Z"/><path class="cls-12" d="M568.68,371.21l-7.62,6.12,1.26,1.26,1.25,1.26,6.13-7.62s5.91-.64,2.76-3.79S568.68,371.21,568.68,371.21Z"/><path class="cls-12" d="M539.22,402.62l6.28-5-1-1-1-1-5,6.27s-4.88.53-2.28,3.13S539.22,402.62,539.22,402.62Z"/><path class="cls-12" d="M574.38,387.29l-8.72-1v3.2l8.72-.94s4.16,3.34,4.16-.66S574.38,387.29,574.38,387.29Z"/><path class="cls-12" d="M531,388.64l8.73,1v-3.2l-8.73,1s-4.16-3.35-4.16.65S531,388.64,531,388.64Z"/><path class="cls-12" d="M552.36,366.12l-.81,7.38h2.71l-.8-7.38s2.83-3.52-.55-3.52S552.36,366.12,552.36,366.12Z"/><path class="cls-12" d="M553.55,411.22l1-8.73h-3.2l.94,8.73s-3.34,4.16.66,4.16S553.55,411.22,553.55,411.22Z"/><path class="cls-10" d="M567,396a15.63,15.63,0,1,1-21.1-21.63,15.48,15.48,0,0,0-2.22,8A15.63,15.63,0,0,0,567,396Z"/><circle class="cls-11" cx="557.71" cy="246.48" r="29.12"/><circle class="cls-8" cx="573.13" cy="251.75" r="2.75"/><path class="cls-8" d="M563,262.2a4.12,4.12,0,1,1-4.12-4.11A4.12,4.12,0,0,1,563,262.2Z"/><path class="cls-8" d="M573.13,236.05a4.17,4.17,0,1,1-4.16-4.16A4.16,4.16,0,0,1,573.13,236.05Z"/><circle class="cls-8" cx="560.21" cy="246.61" r="2.4"/><circle class="cls-8" cx="542.76" cy="250.26" r="5.52"/><circle class="cls-8" cx="550.16" cy="232.76" r="3.29"/><path class="cls-11" d="M543.63,279.44l6.53-11.62-2.23-.95-2.23-.95-3.88,12.75s-7.16,3.82-1.56,6.21S543.63,279.44,543.63,279.44Z"/><path class="cls-11" d="M569.47,213.77,563,225.39l2.23,1,2.23.95,3.88-12.75s7.15-3.82,1.56-6.21S569.47,213.77,569.47,213.77Z"/><path class="cls-11" d="M594.62,261.31l-16.46-9.24-1.34,3.16-1.35,3.16,18.06,5.49s5.41,10.13,8.78,2.2S594.62,261.31,594.62,261.31Z"/><path class="cls-11" d="M523.72,233.69l11.62,6.52.95-2.23,1-2.23-12.75-3.88s-3.83-7.15-6.21-1.56S523.72,233.69,523.72,233.69Z"/><path class="cls-11" d="M570.64,277.16,567,264.33l-2.25.9-2.25.91,6.28,11.76s-2.36,7.76,3.29,5.49S570.64,277.16,570.64,277.16Z"/><path class="cls-11" d="M540.25,209.74l5,17.69,3.1-1.25,3.11-1.25-8.66-16.21s3.25-10.7-4.53-7.57S540.25,209.74,540.25,209.74Z"/><path class="cls-11" d="M588.91,232.52l-12.84,3.6.91,2.26.91,2.25,11.76-6.28s7.76,2.36,5.49-3.29S588.91,232.52,588.91,232.52Z"/><path class="cls-11" d="M525.49,260.32l12.84-3.6-.91-2.25-.91-2.26-11.76,6.28s-7.76-2.35-5.49,3.29S525.49,260.32,525.49,260.32Z"/><path class="cls-11" d="M585.41,273.91,576,262.2l-1.93,1.93-1.94,1.93,11.69,9.41s1,9.09,5.83,4.24S585.41,273.91,585.41,273.91Z"/><path class="cls-11" d="M528.36,219.88l8.84,11,1.82-1.82,1.82-1.82-11-8.86s-.92-8.55-5.48-4S528.36,219.88,528.36,219.88Z"/><path class="cls-11" d="M585.93,215.34l-14.19,11.39,2.34,2.34,2.34,2.35,11.42-14.18s11-1.19,5.14-7.07S585.93,215.34,585.93,215.34Z"/><path class="cls-11" d="M531.06,273.85l11.7-9.4-1.93-1.93-1.93-1.93-9.41,11.69s-9.08,1-4.24,5.82S531.06,273.85,531.06,273.85Z"/><path class="cls-11" d="M596.55,245.28,580.3,243.5v5.95l16.25-1.75s7.75,6.23,7.75-1.22S596.55,245.28,596.55,245.28Z"/><path class="cls-11" d="M515.68,247.81l16.25,1.78v-6l-16.25,1.76s-7.75-6.24-7.75,1.22S515.68,247.81,515.68,247.81Z"/><path class="cls-11" d="M555.54,205.85,554,219.61h5l-1.49-13.76s5.28-6.56-1-6.56S555.54,205.85,555.54,205.85Z"/><path class="cls-11" d="M557.75,289.86l1.78-16.25h-5.95l1.76,16.25s-6.24,7.75,1.22,7.75S557.75,289.86,557.75,289.86Z"/><path class="cls-10" d="M582.71,261.43a29.12,29.12,0,1,1-39.3-40.31,29.12,29.12,0,0,0,39.3,40.31Z"/><path class="cls-8" d="M485.15,209.29a11.18,11.18,0,1,1-12.39-9.81A11.18,11.18,0,0,1,485.15,209.29Z"/><path class="cls-9" d="M481.2,211.79a1.05,1.05,0,1,1-1.17-.93A1.06,1.06,0,0,1,481.2,211.79Z"/><path class="cls-9" d="M476.73,216.34A1.58,1.58,0,1,1,475,215,1.59,1.59,0,0,1,476.73,216.34Z"/><path class="cls-9" d="M479.46,205.92a1.6,1.6,0,1,1-1.77-1.4A1.6,1.6,0,0,1,479.46,205.92Z"/><path class="cls-9" d="M475.92,210.41a.92.92,0,1,1-1-.81A.93.93,0,0,1,475.92,210.41Z"/><path class="cls-9" d="M470.61,212.44a2.11,2.11,0,1,1-2.34-1.86A2.11,2.11,0,0,1,470.61,212.44Z"/><path class="cls-9" d="M471.81,205.54a1.26,1.26,0,1,1-1.4-1.11A1.26,1.26,0,0,1,471.81,205.54Z"/><path class="cls-8" d="M470.13,223.77l2-4.72-.9-.26-.89-.27-.91,5s-2.56,1.77-.32,2.43S470.13,223.77,470.13,223.77Z"/><path class="cls-8" d="M477.08,197.59l-2,4.72.89.26.89.27.92-5s2.56-1.77.32-2.43S477.08,197.59,477.08,197.59Z"/><path class="cls-8" d="M488.77,214.6l-6.68-2.79-.37,1.26-.38,1.27,7.13,1.29s2.51,3.62,3.45.45S488.77,214.6,488.77,214.6Z"/><path class="cls-8" d="M460.51,207.21l4.73,2,.26-.89.26-.9-5-.91s-1.78-2.56-2.44-.32S460.51,207.21,460.51,207.21Z"/><path class="cls-8" d="M480.33,221.71,478.39,217l-.82.45-.82.44,2.91,4.21s-.55,3.07,1.5,2S480.33,221.71,480.33,221.71Z"/><path class="cls-8" d="M465.76,197.34l2.68,6.53,1.13-.61,1.12-.62-4-5.8s.76-4.22-2.07-2.68S465.76,197.34,465.76,197.34Z"/><path class="cls-8" d="M485.32,203.88l-4.73,1.94.44.82.45.82,4.2-2.92s3.07.56,1.95-1.49S485.32,203.88,485.32,203.88Z"/><path class="cls-8" d="M462.37,217.28l4.73-1.94-.44-.82-.45-.81-4.2,2.91s-3.07-.56-1.95,1.5S462.37,217.28,462.37,217.28Z"/><path class="cls-8" d="M485.82,219.81l-4.1-4-.65.82-.65.82,4.87,3.07s.78,3.42,2.41,1.36S485.82,219.81,485.82,219.81Z"/><path class="cls-8" d="M461.67,201.73l3.86,3.82.62-.78.61-.77-4.59-2.89s-.73-3.22-2.27-1.28S461.67,201.73,461.67,201.73Z"/><path class="cls-8" d="M483.43,197.46l-4.91,5,1,.79,1,.79,3.73-5.91s4.14-.94,1.65-2.92S483.43,197.46,483.43,197.46Z"/><path class="cls-8" d="M465.09,222.2l4.05-4.1-.82-.66-.83-.65-3.07,4.88s-3.42.77-1.36,2.41S465.09,222.2,465.09,222.2Z"/><path class="cls-8" d="M488.8,208.41l-6.27,0,.13,1.13.13,1.14,6.12-1.39s3.23,2,2.9-.81S488.8,208.41,488.8,208.41Z"/><path class="cls-8" d="M458.07,213l6.28,0-.13-1.14-.13-1.13L458,212s-3.23-2-2.9.81S458.07,213,458.07,213Z"/><path class="cls-8" d="M471.42,195.18l0,5.32,1-.12,1-.11-1.17-5.18s1.72-2.73-.69-2.45S471.42,195.18,471.42,195.18Z"/><path class="cls-8" d="M476,227.12l0-6.28-1.14.14-1.13.13,1.39,6.12s-2,3.23.8,2.9S476,227.12,476,227.12Z"/><path class="cls-10" d="M484.24,215.17a11.18,11.18,0,1,1-16.77-13.63,11.18,11.18,0,0,0,16.77,13.63Z"/><ellipse class="cls-14" cx="547.06" cy="61.94" rx="9.21" ry="7.98" transform="translate(28.93 248.08) rotate(-26.22)"/><path class="cls-14" d="M515.79,67.82c1,2-.08,4.53-2.38,5.66s-5,.43-5.95-1.56.09-4.53,2.39-5.66S514.81,65.82,515.79,67.82Z"/><path class="cls-14" d="M498.11,322.13a4.76,4.76,0,1,1-1.53-6.83A5,5,0,0,1,498.11,322.13Z"/><path class="cls-14" d="M462.56,342.84a7.14,7.14,0,1,1,.8-10.06A7.15,7.15,0,0,1,462.56,342.84Z"/><path class="cls-14" d="M434.71,187.35a8.67,8.67,0,1,1,4-11.61A8.68,8.68,0,0,1,434.71,187.35Z"/><path class="cls-14" d="M524.83,349.19a13.5,13.5,0,1,1-4.94-18.43A13.49,13.49,0,0,1,524.83,349.19Z"/><ellipse class="cls-14" cx="532.64" cy="99.12" rx="16.01" ry="14.91" transform="translate(48.86 343.03) rotate(-37.3)"/><path class="cls-14" d="M750,16.1S586.2-6.49,562.72,95.56c-12,59.53-134.57,59.35-126.57,133.4s105.93,68.89,112.47,137.46C564.1,478.08,711,474,750,469Z"/></g></g></svg>